<svg width="24" height="24" viewBox="0 0 24 24" fill="none" xmlns="http://www.w3.org/2000/svg">
  <g clip-path="url(#clip0_12_26)">
    <path d="M21.4329 4.861L15.4329 20.361C15.3736 20.5145 15.2773 20.651 15.1525 20.7584C15.0278 20.8657 14.8784 20.9406 14.7178 20.9764C14.5571 21.0123 14.3901 21.0079 14.2316 20.9636C14.0731 20.9194 13.9279 20.8368 13.8089 20.723L10.4269 17.488L8.35295 19.561C8.28297 19.6308 8.19388 19.6782 8.09695 19.6974C8.00001 19.7166 7.89956 19.7066 7.80829 19.6687C7.71703 19.6308 7.63903 19.5668 7.58415 19.4846C7.52927 19.4024 7.49997 19.3058 7.49995 19.207V14.688L2.30895 9.723C2.18015 9.59978 2.08663 9.44437 2.03807 9.27286C1.98951 9.10136 1.98767 8.91999 2.03275 8.74754C2.07783 8.57508 2.16818 8.41781 2.29445 8.29201C2.42072 8.1662 2.57833 8.07643 2.75095 8.032L20.2509 3.532C20.4289 3.48642 20.6159 3.49072 20.7915 3.54443C20.9672 3.59813 21.1246 3.69917 21.2466 3.83646C21.3686 3.97374 21.4504 4.14198 21.4831 4.3227C21.5158 4.50343 21.4981 4.68967 21.4319 4.861H21.4329ZM18.9999 6.001L8.03195 13.152L9.76695 14.812L18.9999 6.001Z" fill="white"/>
  </g>
  <defs>
    <clipPath id="clip0_12_26">
      <rect width="24" height="24" fill="white"/>
    </clipPath>
  </defs>
</svg> 